<?xml version="1.0" encoding="utf-8"?>
<!-- Generator: Adobe Illustrator 16.0.0, SVG Export Plug-In . SVG Version: 6.00 Build 0)  -->
<!DOCTYPE svg PUBLIC "-//W3C//DTD SVG 1.1//EN" "http://www.w3.org/Graphics/SVG/1.1/DTD/svg11.dtd">
<svg version="1.1" id="Layer_1" xmlns="http://www.w3.org/2000/svg" xmlns:xlink="http://www.w3.org/1999/xlink" x="0px" y="0px"
	 width="512px" height="512px" viewBox="0 0 512 512" enable-background="new 0 0 512 512" xml:space="preserve">
<g>
	<g>
		<g>
			<path fill="#EE9A20" d="M506,256c0,138.074-111.928,250.007-249.998,250.007C117.922,506.007,6,394.074,6,256
				C6,117.925,117.922,5.993,256.002,5.993C394.072,5.993,506,117.925,506,256z"/>
			<path display="none" fill="#FFFFFF" d="M256.002,24.743C128.274,24.743,24.75,128.277,24.75,256
				c0,127.718,103.524,231.26,231.252,231.26c127.709,0,231.251-103.542,231.251-231.26
				C487.253,128.277,383.711,24.743,256.002,24.743z M256.002,468.503c-117.366,0-212.511-95.14-212.511-212.503
				c0-117.357,95.146-212.503,212.511-212.503c117.35,0,212.494,95.146,212.494,212.503
				C468.496,373.363,373.352,468.503,256.002,468.503z"/>
			<path fill="#FFFFFF" d="M416.896,117.287c32.127,37.229,51.601,85.684,51.601,138.713c0,117.363-95.145,212.503-212.494,212.503
				c-117.366,0-212.511-95.14-212.511-212.503c0-117.357,95.146-212.503,212.511-212.503c48.977,0,94.051,16.619,129.988,44.459
				l13.525-13.221c-39.442-31.268-89.278-49.993-143.514-49.993C128.274,24.743,24.75,128.277,24.75,256
				c0,127.718,103.524,231.26,231.252,231.26c127.709,0,231.251-103.542,231.251-231.26c0-59.183-22.263-113.15-58.832-154.052
				L416.896,117.287z"/>
		</g>
	</g>
	<g>
		<g>
			<polygon fill="#FFFFFF" points="118.835,160.476 118.835,364.787 182.212,364.787 182.212,249.105 			"/>
		</g>
		<g>
			<polygon fill="#FFFFFF" points="392.944,160.476 392.944,364.787 329.571,364.787 329.571,249.105 			"/>
		</g>
		<g>
			<polygon fill="#FFFFFF" points="255.968,309.498 470.718,23.62 255.968,233.581 134.201,146.906 			"/>
		</g>
	</g>
</g>
</svg>
